# xmcd
#
# Track frame offsets:
#	180
#	21301
#	52246
#	74072
#	93403
#	116227
#	139692
#	167466
#	182678
#	193673
#	210660
#	228135
#	247887
#	273886
#	293802
#
# Disc length: 4271
#
# Revision: 5
# Processed by: cddbd v1.5.1PL0 Copyright (c) Steve Scherf et al.
# Submitted via: audiograbber 1.82.01
# Normalized: r4:DSETVAR1
#
DISCID=dd10ad0f
DTITLE=Various Artist - The Best of Lounge Music, Volume 2 [disc 1]
DYEAR=2003
DGENRE=Easy - Lounge
TTITLE0=Art of Noise - (Three Fingers of) Love
TTITLE1=Bliss - Dunia
TTITLE2=Manuel Franjo - Tiempo
TTITLE3=Solustice - Tenderly
TTITLE4=Alexander Robotnick - Jump
TTITLE5=Sarma - Muel
TTITLE6=Ritchie Lawrence - Laurence D'arabie
TTITLE7=Virtual Hands - Camino al Mar
TTITLE8=Toquinho - Garota de Ipanema
TTITLE9=Los Ninos de Sara - Mi... Angel
TTITLE10=Funkstar de Luxe Vs. Bob Marley - Sun in Shining
TTITLE11=Org Lounge - Jazz Trippin'
TTITLE12=Sezen Aksu - Sari Odalar
TTITLE13=Suba - Tanto Desejos
TTITLE14=G Club Presents Banda Sonora - Guitarra G
EXTD=YEAR: 2003
EXTT0=
EXTT1=
EXTT2=
EXTT3=
EXTT4=
EXTT5=
EXTT6=
EXTT7=
EXTT8=
EXTT9=
EXTT10=
EXTT11=
EXTT12=
EXTT13=
EXTT14=
PLAYORDER=
